# xmcd CD database file
#
# Track frame offsets:
#	150
#	30927
#	55530
#	84770
#	103420
#	110147
#	126170
#	159067
#	186967
#	218959
#	253180
#	284957
#
# Disc length: 4021 seconds
#
# Revision: 0
# Processed by: cddbd v1.5PL3 Copyright (c) Steve Scherf et al.
# Submitted via: CDex 1.51
#
DISCID=a90fb30c
DTITLE=Grismore/Scea Group - Of What
DYEAR=1996
DGENRE=Jazz
TTITLE0=Of What
TTITLE1=157 A.M 
TTITLE2=Prefect
TTITLE3=I Found a Shirt in My Yard
TTITLE4=Intensity Density
TTITLE5=Die for a Metaphor
TTITLE6=Feet
TTITLE7=Child's Play
TTITLE8=Gone but not Forgotten
TTITLE9=RSJ
TTITLE10=Saab Story
TTITLE11=Ryaum Chages
EXTD=YEAR: 1996
EXTT0=
EXTT1=
EXTT2=
EXTT3=
EXTT4=
EXTT5=
EXTT6=
EXTT7=
EXTT8=
EXTT9=
EXTT10=
EXTT11=
PLAYORDER=
